<mxfile host="Electron" agent="Mozilla/5.0 (Windows NT 10.0; Win64; x64) AppleWebKit/537.36 (KHTML, like Gecko) draw.io/24.7.17 Chrome/128.0.6613.36 Electron/32.0.1 Safari/537.36" version="24.7.17">
  <diagram name="Page-1" id="74e2e168-ea6b-b213-b513-2b3c1d86103e">
    <mxGraphModel dx="794" dy="511" grid="1" gridSize="10" guides="1" tooltips="1" connect="1" arrows="1" fold="1" page="1" pageScale="1" pageWidth="3300" pageHeight="2339" background="none" math="0" shadow="0">
      <root>
        <mxCell id="0" />
        <mxCell id="1" parent="0" />
        <mxCell id="77e6c97f196da883-1" value="Flowmap Register Pengelola" style="swimlane;html=1;childLayout=stackLayout;startSize=20;rounded=0;shadow=0;labelBackgroundColor=none;strokeWidth=1;fontFamily=Verdana;fontSize=8;align=center;" parent="1" vertex="1">
          <mxGeometry x="70" y="40" width="600" height="1750" as="geometry" />
        </mxCell>
        <mxCell id="77e6c97f196da883-2" value="Pengelola" style="swimlane;html=1;startSize=20;" parent="77e6c97f196da883-1" vertex="1">
          <mxGeometry y="20" width="300" height="1730" as="geometry" />
        </mxCell>
        <mxCell id="z7fYGlNjnSKStr7rNcJg-9" value="" style="edgeStyle=orthogonalEdgeStyle;rounded=0;orthogonalLoop=1;jettySize=auto;html=1;" parent="77e6c97f196da883-2" source="z7fYGlNjnSKStr7rNcJg-11" edge="1">
          <mxGeometry relative="1" as="geometry">
            <mxPoint x="160.5000000000001" y="761" as="targetPoint" />
          </mxGeometry>
        </mxCell>
        <mxCell id="z7fYGlNjnSKStr7rNcJg-10" value="Ya" style="edgeLabel;html=1;align=center;verticalAlign=middle;resizable=0;points=[];" parent="z7fYGlNjnSKStr7rNcJg-9" vertex="1" connectable="0">
          <mxGeometry x="-0.2933" y="3" relative="1" as="geometry">
            <mxPoint as="offset" />
          </mxGeometry>
        </mxCell>
        <mxCell id="z7fYGlNjnSKStr7rNcJg-11" value="Username&amp;nbsp;&lt;br&gt;Unique" style="strokeWidth=2;html=1;shape=mxgraph.flowchart.decision;whiteSpace=wrap;" parent="77e6c97f196da883-2" vertex="1">
          <mxGeometry x="110.5" y="561" width="100" height="100" as="geometry" />
        </mxCell>
        <mxCell id="z7fYGlNjnSKStr7rNcJg-12" value="Verifikasi&lt;br&gt;Username&lt;br&gt;Unique" style="rounded=0;whiteSpace=wrap;html=1;" parent="77e6c97f196da883-2" vertex="1">
          <mxGeometry x="103.5" y="441" width="120" height="60" as="geometry" />
        </mxCell>
        <mxCell id="z7fYGlNjnSKStr7rNcJg-14" style="edgeStyle=orthogonalEdgeStyle;rounded=0;orthogonalLoop=1;jettySize=auto;html=1;entryX=0.5;entryY=0;entryDx=0;entryDy=0;" parent="77e6c97f196da883-2" source="z7fYGlNjnSKStr7rNcJg-15" edge="1">
          <mxGeometry relative="1" as="geometry">
            <mxPoint x="161" y="180" as="targetPoint" />
          </mxGeometry>
        </mxCell>
        <mxCell id="z7fYGlNjnSKStr7rNcJg-15" value="Mulai" style="strokeWidth=2;html=1;shape=mxgraph.flowchart.terminator;whiteSpace=wrap;" parent="77e6c97f196da883-2" vertex="1">
          <mxGeometry x="111" y="60" width="100" height="60" as="geometry" />
        </mxCell>
        <mxCell id="z7fYGlNjnSKStr7rNcJg-16" style="edgeStyle=orthogonalEdgeStyle;rounded=0;orthogonalLoop=1;jettySize=auto;html=1;entryX=0.572;entryY=-0.046;entryDx=0;entryDy=0;entryPerimeter=0;" parent="77e6c97f196da883-2" edge="1">
          <mxGeometry relative="1" as="geometry">
            <mxPoint x="161" y="240" as="sourcePoint" />
            <mxPoint x="160.942" y="309.24" as="targetPoint" />
          </mxGeometry>
        </mxCell>
        <mxCell id="z7fYGlNjnSKStr7rNcJg-17" value="Input&lt;br&gt;Username" style="shape=parallelogram;perimeter=parallelogramPerimeter;whiteSpace=wrap;html=1;fixedSize=1;" parent="77e6c97f196da883-2" vertex="1">
          <mxGeometry x="104.5" y="180" width="120" height="60" as="geometry" />
        </mxCell>
        <mxCell id="z7fYGlNjnSKStr7rNcJg-18" value="Input&lt;br&gt;Password" style="shape=parallelogram;perimeter=parallelogramPerimeter;whiteSpace=wrap;html=1;fixedSize=1;" parent="77e6c97f196da883-2" vertex="1">
          <mxGeometry x="104.5" y="310" width="120" height="60" as="geometry" />
        </mxCell>
        <mxCell id="z7fYGlNjnSKStr7rNcJg-21" value="" style="edgeStyle=orthogonalEdgeStyle;rounded=0;orthogonalLoop=1;jettySize=auto;html=1;" parent="77e6c97f196da883-2" target="z7fYGlNjnSKStr7rNcJg-11" edge="1">
          <mxGeometry relative="1" as="geometry">
            <mxPoint x="160" y="503" as="sourcePoint" />
          </mxGeometry>
        </mxCell>
        <mxCell id="z7fYGlNjnSKStr7rNcJg-23" value="" style="edgeStyle=orthogonalEdgeStyle;rounded=0;orthogonalLoop=1;jettySize=auto;html=1;" parent="77e6c97f196da883-2" source="z7fYGlNjnSKStr7rNcJg-18" target="z7fYGlNjnSKStr7rNcJg-12" edge="1">
          <mxGeometry relative="1" as="geometry" />
        </mxCell>
        <mxCell id="z7fYGlNjnSKStr7rNcJg-24" value="" style="endArrow=classic;html=1;rounded=0;exitX=0;exitY=0.5;exitDx=0;exitDy=0;exitPerimeter=0;entryX=0;entryY=0.5;entryDx=0;entryDy=0;" parent="77e6c97f196da883-2" source="z7fYGlNjnSKStr7rNcJg-11" target="z7fYGlNjnSKStr7rNcJg-17" edge="1">
          <mxGeometry width="50" height="50" relative="1" as="geometry">
            <mxPoint x="110" y="611" as="sourcePoint" />
            <mxPoint x="110" y="551" as="targetPoint" />
            <Array as="points">
              <mxPoint x="60" y="611" />
              <mxPoint x="60" y="210" />
            </Array>
          </mxGeometry>
        </mxCell>
        <mxCell id="z7fYGlNjnSKStr7rNcJg-25" value="Tidak" style="edgeLabel;html=1;align=center;verticalAlign=middle;resizable=0;points=[];" parent="z7fYGlNjnSKStr7rNcJg-24" vertex="1" connectable="0">
          <mxGeometry x="-0.9195" y="1" relative="1" as="geometry">
            <mxPoint as="offset" />
          </mxGeometry>
        </mxCell>
        <mxCell id="z7fYGlNjnSKStr7rNcJg-29" value="" style="edgeStyle=orthogonalEdgeStyle;rounded=0;orthogonalLoop=1;jettySize=auto;html=1;" parent="77e6c97f196da883-2" source="z7fYGlNjnSKStr7rNcJg-27" target="z7fYGlNjnSKStr7rNcJg-28" edge="1">
          <mxGeometry relative="1" as="geometry" />
        </mxCell>
        <mxCell id="z7fYGlNjnSKStr7rNcJg-27" value="Page Input&lt;br&gt;Biodata&lt;br&gt;Bank Sampah" style="strokeWidth=2;html=1;shape=mxgraph.flowchart.display;whiteSpace=wrap;" parent="77e6c97f196da883-2" vertex="1">
          <mxGeometry x="94.25" y="762" width="124.5" height="69" as="geometry" />
        </mxCell>
        <mxCell id="z7fYGlNjnSKStr7rNcJg-33" value="" style="edgeStyle=orthogonalEdgeStyle;rounded=0;orthogonalLoop=1;jettySize=auto;html=1;" parent="77e6c97f196da883-2" source="z7fYGlNjnSKStr7rNcJg-28" target="z7fYGlNjnSKStr7rNcJg-30" edge="1">
          <mxGeometry relative="1" as="geometry" />
        </mxCell>
        <mxCell id="z7fYGlNjnSKStr7rNcJg-28" value="Input&lt;br&gt;Nama Pengelola" style="shape=parallelogram;perimeter=parallelogramPerimeter;whiteSpace=wrap;html=1;fixedSize=1;" parent="77e6c97f196da883-2" vertex="1">
          <mxGeometry x="96.5" y="890" width="120" height="60" as="geometry" />
        </mxCell>
        <mxCell id="z7fYGlNjnSKStr7rNcJg-34" value="" style="edgeStyle=orthogonalEdgeStyle;rounded=0;orthogonalLoop=1;jettySize=auto;html=1;" parent="77e6c97f196da883-2" source="z7fYGlNjnSKStr7rNcJg-30" target="z7fYGlNjnSKStr7rNcJg-31" edge="1">
          <mxGeometry relative="1" as="geometry" />
        </mxCell>
        <mxCell id="z7fYGlNjnSKStr7rNcJg-30" value="Input&lt;br&gt;Nama Bank&lt;br&gt;Sampah" style="shape=parallelogram;perimeter=parallelogramPerimeter;whiteSpace=wrap;html=1;fixedSize=1;" parent="77e6c97f196da883-2" vertex="1">
          <mxGeometry x="96" y="990" width="120" height="60" as="geometry" />
        </mxCell>
        <mxCell id="z7fYGlNjnSKStr7rNcJg-35" value="" style="edgeStyle=orthogonalEdgeStyle;rounded=0;orthogonalLoop=1;jettySize=auto;html=1;" parent="77e6c97f196da883-2" source="z7fYGlNjnSKStr7rNcJg-31" target="z7fYGlNjnSKStr7rNcJg-32" edge="1">
          <mxGeometry relative="1" as="geometry" />
        </mxCell>
        <mxCell id="z7fYGlNjnSKStr7rNcJg-31" value="Input&lt;br&gt;Alamat&amp;nbsp;&lt;br&gt;Bank Sampah" style="shape=parallelogram;perimeter=parallelogramPerimeter;whiteSpace=wrap;html=1;fixedSize=1;" parent="77e6c97f196da883-2" vertex="1">
          <mxGeometry x="95" y="1090" width="120" height="60" as="geometry" />
        </mxCell>
        <mxCell id="z7fYGlNjnSKStr7rNcJg-37" value="" style="edgeStyle=orthogonalEdgeStyle;rounded=0;orthogonalLoop=1;jettySize=auto;html=1;" parent="77e6c97f196da883-2" source="z7fYGlNjnSKStr7rNcJg-32" target="z7fYGlNjnSKStr7rNcJg-36" edge="1">
          <mxGeometry relative="1" as="geometry" />
        </mxCell>
        <mxCell id="z7fYGlNjnSKStr7rNcJg-32" value="Input&lt;br&gt;Link Gmaps&lt;br&gt;Bank Sampah" style="shape=parallelogram;perimeter=parallelogramPerimeter;whiteSpace=wrap;html=1;fixedSize=1;" parent="77e6c97f196da883-2" vertex="1">
          <mxGeometry x="95" y="1190" width="120" height="60" as="geometry" />
        </mxCell>
        <mxCell id="z7fYGlNjnSKStr7rNcJg-41" value="" style="edgeStyle=orthogonalEdgeStyle;rounded=0;orthogonalLoop=1;jettySize=auto;html=1;" parent="77e6c97f196da883-2" source="z7fYGlNjnSKStr7rNcJg-36" target="z7fYGlNjnSKStr7rNcJg-40" edge="1">
          <mxGeometry relative="1" as="geometry" />
        </mxCell>
        <mxCell id="z7fYGlNjnSKStr7rNcJg-36" value="Buat Data&lt;br&gt;Pengelola" style="rounded=0;whiteSpace=wrap;html=1;" parent="77e6c97f196da883-2" vertex="1">
          <mxGeometry x="94" y="1310" width="120" height="60" as="geometry" />
        </mxCell>
        <mxCell id="z7fYGlNjnSKStr7rNcJg-43" value="" style="edgeStyle=orthogonalEdgeStyle;rounded=0;orthogonalLoop=1;jettySize=auto;html=1;" parent="77e6c97f196da883-2" source="z7fYGlNjnSKStr7rNcJg-40" target="z7fYGlNjnSKStr7rNcJg-42" edge="1">
          <mxGeometry relative="1" as="geometry" />
        </mxCell>
        <mxCell id="z7fYGlNjnSKStr7rNcJg-40" value="Login&lt;br&gt;Page" style="strokeWidth=2;html=1;shape=mxgraph.flowchart.display;whiteSpace=wrap;" parent="77e6c97f196da883-2" vertex="1">
          <mxGeometry x="104" y="1460" width="100" height="60" as="geometry" />
        </mxCell>
        <mxCell id="z7fYGlNjnSKStr7rNcJg-42" value="Selesai" style="strokeWidth=2;html=1;shape=mxgraph.flowchart.terminator;whiteSpace=wrap;" parent="77e6c97f196da883-2" vertex="1">
          <mxGeometry x="104.5" y="1630" width="100" height="60" as="geometry" />
        </mxCell>
        <mxCell id="107ba76e4e335f99-5" style="edgeStyle=orthogonalEdgeStyle;rounded=1;html=1;labelBackgroundColor=none;startArrow=none;startFill=0;startSize=5;endArrow=classicThin;endFill=1;endSize=5;jettySize=auto;orthogonalLoop=1;strokeWidth=1;fontFamily=Verdana;fontSize=8" parent="77e6c97f196da883-1" edge="1">
          <mxGeometry relative="1" as="geometry">
            <Array as="points">
              <mxPoint x="80" y="650" />
              <mxPoint x="490" y="650" />
              <mxPoint x="490" y="610" />
            </Array>
            <mxPoint x="80" y="640" as="sourcePoint" />
          </mxGeometry>
        </mxCell>
        <mxCell id="77e6c97f196da883-3" value="Sistem" style="swimlane;html=1;startSize=20;" parent="77e6c97f196da883-1" vertex="1">
          <mxGeometry x="300" y="20" width="300" height="1730" as="geometry" />
        </mxCell>
        <mxCell id="z7fYGlNjnSKStr7rNcJg-19" value="&lt;div&gt;&lt;br&gt;&lt;/div&gt;&lt;div&gt;&lt;br&gt;&lt;/div&gt;ecosphera&lt;div&gt;&lt;/div&gt;" style="strokeWidth=2;html=1;shape=mxgraph.flowchart.database;whiteSpace=wrap;" parent="77e6c97f196da883-3" vertex="1">
          <mxGeometry x="110" y="400" width="110" height="129" as="geometry" />
        </mxCell>
        <mxCell id="z7fYGlNjnSKStr7rNcJg-38" value="&lt;div&gt;&lt;br&gt;&lt;/div&gt;&lt;div&gt;&lt;br&gt;&lt;/div&gt;ecosphera&lt;div&gt;&lt;/div&gt;" style="strokeWidth=2;html=1;shape=mxgraph.flowchart.database;whiteSpace=wrap;" parent="77e6c97f196da883-3" vertex="1">
          <mxGeometry x="95" y="1261" width="110" height="129" as="geometry" />
        </mxCell>
        <mxCell id="z7fYGlNjnSKStr7rNcJg-22" value="" style="endArrow=classic;startArrow=classic;html=1;rounded=0;entryX=0;entryY=0.55;entryDx=0;entryDy=0;entryPerimeter=0;" parent="77e6c97f196da883-1" source="z7fYGlNjnSKStr7rNcJg-12" target="z7fYGlNjnSKStr7rNcJg-19" edge="1">
          <mxGeometry width="50" height="50" relative="1" as="geometry">
            <mxPoint x="-470.23917311545756" y="612.7175193463726" as="sourcePoint" />
            <mxPoint x="-323.32000000000005" y="614.836" as="targetPoint" />
          </mxGeometry>
        </mxCell>
        <mxCell id="z7fYGlNjnSKStr7rNcJg-39" style="edgeStyle=orthogonalEdgeStyle;rounded=0;orthogonalLoop=1;jettySize=auto;html=1;entryX=-0.045;entryY=0.62;entryDx=0;entryDy=0;entryPerimeter=0;" parent="77e6c97f196da883-1" source="z7fYGlNjnSKStr7rNcJg-36" target="z7fYGlNjnSKStr7rNcJg-38" edge="1">
          <mxGeometry relative="1" as="geometry" />
        </mxCell>
      </root>
    </mxGraphModel>
  </diagram>
</mxfile>
